<svg width="16" height="16" viewBox="0 0 16 16" fill="none" xmlns="http://www.w3.org/2000/svg">
<path d="M13.1806 3.17869H2.81956V12.3707C2.81956 13.016 3.34241 13.5397 3.98779 13.5397H12.0115C12.6569 13.5397 13.1806 13.016 13.1806 12.3707V3.17869ZM14.3057 12.3707C14.3057 13.6376 13.2784 14.6649 12.0115 14.6649H3.98779C2.72094 14.6649 1.6936 13.6376 1.6936 12.3707V2.61571L1.70544 2.50244C1.75786 2.24601 1.98465 2.05273 2.25658 2.05273H13.7427L13.8569 2.06457C14.113 2.1172 14.3057 2.34397 14.3057 2.61571V12.3707Z" fill="#111111"/>
<path d="M13.7427 4.92417L13.8569 4.93601C14.113 4.98863 14.3057 5.2154 14.3057 5.48716C14.3057 5.7589 14.113 5.98567 13.8569 6.03829L13.7427 6.05014H2.25658C1.94585 6.05014 1.6936 5.79789 1.6936 5.48716C1.6936 5.17641 1.94585 4.92417 2.25658 4.92417H13.7427ZM7.99974 7.79574L8.113 7.80757C8.36948 7.85997 8.56272 8.08676 8.56272 8.35872C8.56272 8.63067 8.36948 8.85747 8.113 8.90986L7.99974 8.9217H5.1282C4.81746 8.9217 4.56522 8.66946 4.56522 8.35872C4.56522 8.04798 4.81746 7.79574 5.1282 7.79574H7.99974ZM10.3084 3.33389V1.8977C10.3084 1.58696 10.5607 1.33472 10.8714 1.33472C11.1822 1.33472 11.4344 1.58696 11.4344 1.8977V3.33389C11.4342 3.64445 11.182 3.89602 10.8714 3.89602C10.5608 3.89602 10.3087 3.64445 10.3084 3.33389ZM4.56522 3.33389V1.8977C4.56522 1.58696 4.81746 1.33472 5.1282 1.33472C5.43894 1.33472 5.69118 1.58696 5.69118 1.8977V3.33389C5.69097 3.64445 5.43881 3.89602 5.1282 3.89602C4.81759 3.89602 4.56542 3.64445 4.56522 3.33389Z" fill="#111111"/>
</svg>
